<?xml version="1.0" encoding="utf-8"?>
<!-- Generated by IcoMoon.io -->
<!DOCTYPE svg PUBLIC "-//W3C//DTD SVG 1.1//EN" "http://www.w3.org/Graphics/SVG/1.1/DTD/svg11.dtd">
<svg version="1.1" xmlns="http://www.w3.org/2000/svg" xmlns:xlink="http://www.w3.org/1999/xlink" width="32" height="32" viewBox="0 0 32 32">

<g transform="translate(0 -1028.4)"><path d="m14.938 12.281-2.844 2.813 6.906 6.906 2.844-2.844-6.906-6.875z" fill="#95a5a6" transform="translate(0 1028.4)"/><path d="m15.562 1041.2c-0.473 1.3-1.472 2.4-2.75 2.9l2.188 2.3c1.16-0.7 2.137-1.7 2.812-2.9l-2.25-2.3z" fill="#7f8c8d"/><path d="m18 10a8 8 0 1 1 -16 0 8 8 0 1 1 16 0z" fill="#bdc3c7" transform="translate(0 1028.4)"/><path d="m15 10a5 5 0 1 1 -10 0 5 5 0 1 1 10 0z" fill="#ecf0f1" transform="translate(0 1028.4)"/></g></svg>