<?xml version="1.0" ?><!DOCTYPE svg  PUBLIC '-//W3C//DTD SVG 1.1//EN'  'http://www.w3.org/Graphics/SVG/1.1/DTD/svg11.dtd'><svg height="32px" style="enable-background:new 0 0 20 32;" version="1.1" viewBox="0 0 20 32" width="20px" xml:space="preserve" xmlns="http://www.w3.org/2000/svg" xmlns:xlink="http://www.w3.org/1999/xlink"><g id="Layer_1"/><g id="lightbulb"><g><path d="M10,4.008c3.312,0,6,2.699,6,6.016c0,1.895-0.863,3.637-2.375,4.773    c-2.256,1.707-3.168,3.594-3.482,5.18H9.857c-0.312-1.586-1.227-3.473-3.484-5.18c-1.508-1.137-2.375-2.879-2.375-4.773    C3.998,6.707,6.689,4.008,10,4.008 M10,0C4.477,0,0,4.488,0,10.023C0,13.305,1.545,16.172,3.969,18    c1.115,0.844,2.035,1.93,2.035,3.43v2.555H14V21.43c0-1.5,0.918-2.586,2.031-3.43C18.457,16.172,20,13.305,20,10.023    C20,4.488,15.523,0,10,0L10,0z" style="fill:#4E4E50;"/><rect height="4.008" style="fill:#4E4E50;" width="7.996" x="6.004" y="27.992"/></g></g></svg>