<?xml version="1.0" ?><!DOCTYPE svg  PUBLIC '-//W3C//DTD SVG 1.1//EN'  'http://www.w3.org/Graphics/SVG/1.1/DTD/svg11.dtd'><svg height="32px" id="Layer_1" style="enable-background:new 0 0 32 32;" version="1.1" viewBox="0 0 32 32" width="32px" xml:space="preserve" xmlns="http://www.w3.org/2000/svg" xmlns:xlink="http://www.w3.org/1999/xlink"><path d="M2,16h2c1.104,0,2,0.896,2,2s-0.896,2-2,2H2c-0.958,0-2,0.771-2,2v8c0,1.1,0.9,2,2,2h8c0.984,0,2-0.771,2-2v-2  c0-1.104,0.896-2,2-2s2,0.896,2,2v2c0,1.063,0.875,2,2,2h6c1.1,0,2-0.9,2-2v-6c3.313,0,6-2.687,6-6s-2.687-6-6-6V8c0-1.1-0.9-2-2-2  h-4c0-3.313-2.687-6-6-6S8,2.687,8,6H2C0.9,6,0,6.9,0,8v6C0,15.021,0.813,16,2,16z M26,20h-4v8h-2c0-3.313-2.687-6-6-6s-6,2.687-6,6  H4v-4c3.313,0,6-2.687,6-6s-2.687-6-6-6v-2h8V6c0-1.104,0.896-2,2-2s2,0.896,2,2v4h6v6h4c1.104,0,2,0.896,2,2S27.104,20,26,20z"/></svg>