<?xml version="1.0" ?><!DOCTYPE svg  PUBLIC '-//W3C//DTD SVG 1.1//EN'  'http://www.w3.org/Graphics/SVG/1.1/DTD/svg11.dtd'><svg height="32px" id="Layer_1" style="enable-background:new 0 0 32 32;" version="1.1" viewBox="0 0 32 32" width="32px" xml:space="preserve" xmlns="http://www.w3.org/2000/svg" xmlns:xlink="http://www.w3.org/1999/xlink"><g transform="translate(192 48)"><path d="M-187.148-31.646l6.721-6.72c0.671-0.672,0.671-1.76,0-2.432c-0.672-0.672-1.76-0.672-2.432,0l-7.91,7.91   c-0.344,0.342-0.51,0.793-0.504,1.24c-0.006,0.448,0.16,0.896,0.504,1.239l7.91,7.91c0.67,0.671,1.76,0.671,2.432,0   c0.673-0.672,0.671-1.76,0-2.432L-187.148-31.646L-187.148-31.646z"/><path d="M-161.23-33.239l-7.91-7.91c-0.672-0.672-1.76-0.672-2.433,0c-0.672,0.67-0.672,1.76,0,2.43l6.72,6.719l-6.72,6.721   c-0.672,0.671-0.672,1.759,0,2.431c0.67,0.672,1.759,0.672,2.433,0l7.91-7.91c0.342-0.342,0.51-0.791,0.504-1.24   C-160.723-32.448-160.891-32.897-161.23-33.239z"/><path d="M-175.76-21.995c-0.168,1.022-1.131,1.715-2.154,1.547l0,0c-1.021-0.168-1.713-1.134-1.545-2.154l3.188-19.404   c0.168-1.021,1.133-1.713,2.153-1.545l0,0c1.021,0.168,1.713,1.131,1.545,2.154L-175.76-21.995z"/></g></svg>